PathFileType	4	(X/Y/Z)	C:\Users\WrightLab\Desktop\Jo\P1_boxCal20.trc
DataRate	CameraRate	NumFrames	NumMarkers	Units	OrigDataRate	OrigDataStartFrame	OrigNumFrames
100.00	100.00	       21	19	mm	100.00	352	       937
Frame#	Time	Headset_Front			Headset_Back			Headset_Left			Headset_Right			Left_Shoulder			Right_Shoulder			Sternum			C7			Left Elbow			Right Elbow			Left Wrist			Right Wrist			Left ASIS			Right ASIS			S2			Left Knee			Right Knee			Left Ankle			Right Ankle			
		X1	Y1	Z1	X2	Y2	Z2	X3	Y3	Z3	X4	Y4	Z4	X5	Y5	Z5	X6	Y6	Z6	X7	Y7	Z7	X8	Y8	Z8	X9	Y9	Z9	X10	Y10	Z10	X11	Y11	Z11	X12	Y12	Z12	X13	Y13	Z13	X14	Y14	Z14	X15	Y15	Z15	X16	Y16	Z16	X17	Y17	Z17	X18	Y18	Z18	X19	Y19	Z19	

352	3.510																												-457.38275	950.71185	1720.31555				-437.91122	772.29144	1543.28723													-653.70917	494.10849	1663.00781							
353	3.520																												-459.05029	950.80273	1712.37903				-440.57678	769.29700	1538.74451													-654.93243	492.73703	1658.44165							
354	3.530																												-459.68484	950.13989	1705.35254				-441.34006	767.67053	1534.35925													-654.98749	491.73157	1654.21484							
355	3.540																												-459.84006	951.02502	1698.07373				-442.33224	765.11169	1529.53564													-655.42444	490.08197	1649.85266							
356	3.550																												-461.66064	950.97815	1691.94275				-443.64276	763.37311	1525.68567													-655.31396	488.41913	1648.44727							
357	3.560																												-462.55426	950.79889	1684.55151				-443.78903	762.30463	1521.73218				-712.34564	871.33350	1646.33276							-655.33167	487.03543	1644.48022							
358	3.570																												-463.70691	950.91870	1678.43701				-445.44012	760.20441	1515.80359				-714.05231	871.87811	1638.93787							-654.74414	485.73880	1641.92078							
359	3.580																												-465.20407	950.80194	1671.61133				-446.16006	759.22290	1512.08362				-715.14423	870.69458	1632.91577							-654.83698	483.95624	1639.41418							
360	3.590																												-466.17960	949.96796	1665.19458				-447.57236	757.57245	1508.02759				-716.45557	871.58453	1626.56165							-654.43408	483.61307	1638.06494							
361	3.600																												-467.79504	950.03271	1660.35132				-448.48349	756.01062	1504.67151				-717.99976	872.34564	1620.46057							-654.81537	482.60632	1635.30017							
362	3.610																												-469.39755	949.96143	1655.19250				-450.02295	755.33740	1501.60608				-719.37494	872.71967	1615.33826							-655.30914	482.10135	1631.49133							
363	3.620																												-471.33868	949.61346	1650.31262				-452.19592	753.42401	1497.72168				-720.07410	872.70630	1607.81140							-655.50079	481.30402	1630.12500							
364	3.630																												-472.46127	950.52924	1646.50195				-453.31473	752.72443	1494.79626				-721.37866	872.24738	1606.60120							-655.43463	481.52942	1626.86389							
365	3.640																												-474.77313	950.72754	1641.05298				-454.10623	752.08252	1491.72986				-722.27045	872.86865	1600.99231							-655.86749	481.87823	1623.33130							
366	3.650																												-476.33734	950.42926	1636.12866				-455.39380	750.87939	1488.08496				-723.32660	874.15979	1594.43054							-655.53992	480.86072	1620.30603				-1008.70148	499.08063	1771.38269	
367	3.660																												-477.79370	950.49445	1632.56763				-456.77014	750.99774	1485.84412				-723.78406	875.87170	1585.85107							-655.96924	481.06512	1616.95239				-1012.33496	501.42630	1759.04724	
368	3.670																												-479.77945	951.10925	1628.63306				-458.24033	750.42548	1483.59314				-724.29926	875.81921	1581.64636							-656.12689	480.90161	1614.32874				-1015.82208	503.31580	1746.82922	
369	3.680																												-481.44208	951.08215	1625.00964				-459.87051	748.79810	1480.42822				-724.88531	874.46832	1579.90869							-655.55164	480.85416	1612.98083				-1019.26135	505.94186	1734.97913	
370	3.690																												-483.63358	951.11145	1621.04797				-461.35489	747.30261	1478.03345				-725.19604	875.98505	1572.60730							-655.60486	480.13757	1610.10352				-1022.41071	507.76859	1723.13696	
371	3.700																												-485.89111	951.60236	1617.29224				-462.92773	747.18433	1475.92200				-725.49878	877.36487	1565.30542							-655.73944	479.23273	1608.61938				-1025.62390	509.32364	1711.32983	
372	3.710																												-487.53641	951.52625	1614.47900				-465.37436	746.56775	1474.35938				-725.96411	876.46466	1561.54993							-656.25464	478.65964	1605.83301				-1027.96802	510.64685	1700.00244	
